<svg id="araña" xmlns="http://www.w3.org/2000/svg" viewBox="0 0 482.97 487.69"><defs><style>.cls-1{fill:#1d1d1b;}</style></defs><title>araña</title><path class="cls-1" d="M364.33,279.59l-.74.85c-7.82-16.9-2.89-19.07-2.89-19.07v-1.25c-1.18,0-5.2,4.6-5.2,4.6-1.31,1.65.2,2,.2,2-2.24,28.29,4.21,40.4,4.21,40.4-8.68-9.61-7.63-43.55-7.63-43.55l1.45-.13,5.26-4.74-5,.66c-.53-.13-14.08,12.1-14.08,12.1-1.45,10.13,4.47,28.16,4.47,28.16-10.39-20.26-7.56-30.92-7.56-30.92a3.88,3.88,0,0,0,2.33,0l14-11.71,6.25-.26c-4.27-4.87-17.36,2.1-17.36,2.1l-2.87-2.62c.79-15.79,8.93-24.7,8.93-24.7-6.82,13.6-5.37,24.52-5.37,24.52l13.57-2.86,3.05,1.09-1.62-2.52-8.1-.2-1.82,1-1.93-2.42c1-8.88,6.55-19.29,6.55-19.29-4.08,11.91-3.22,19-3.22,19h9.08l2.43,2.7s.79-1.87,2.1-2c0,0-1.18,1.67-.65,2.46,0,0,.29.49.67,0l.05-1.11s1.1.42,1.13,1.15h1.17c0-.73,1.13-1.15,1.13-1.15l.05,1.11c.38.51.68,0,.68,0,.52-.79-.66-2.46-.66-2.46,1.32.13,2.1,2,2.1,2l2.44-2.7H380s.85-7.1-3.23-19c0,0,5.56,10.41,6.55,19.29l-1.92,2.42-1.83-1-8.09.2-1.63,2.52,3.06-1.09L386.47,256s1.44-10.92-5.38-24.52c0,0,8.15,8.91,8.93,24.7l-2.86,2.62s-13.09-7-17.37-2.1L376,257l14,11.71a3.89,3.89,0,0,0,2.33,0s2.83,10.66-7.56,30.92c0,0,5.92-18,4.47-28.16,0,0-13.55-12.23-14.08-12.1l-5-.66,5.26,4.74,1.45.13s1.05,33.94-7.64,43.55c0,0,6.45-12.11,4.21-40.4,0,0,1.52-.32.2-2,0,0-4-4.6-5.2-4.6v1.25s4.94,2.17-2.89,19.07l-.74-.85S364.64,279.23,364.33,279.59Z"/><path class="cls-1" d="M364.33,279.59l-.74.85h0c-.68-1.54-1.39-3.08-2-4.66-.32-.78-.6-1.58-.86-2.38s-.52-1.61-.75-2.43a22.16,22.16,0,0,1-.84-5,9.32,9.32,0,0,1,.22-2.52,3.36,3.36,0,0,1,1.31-2.12l0,0v-1.25l0,0a2.34,2.34,0,0,0-1,.52c-.32.24-.62.49-.92.76-.58.53-1.14,1.09-1.69,1.66s-1.09,1.15-1.59,1.75a1.93,1.93,0,0,0-.47,1.05.86.86,0,0,0,.71.78h0v0l-.32,5.11-.13,5.12c0,3.41,0,6.83.35,10.23A82.6,82.6,0,0,0,357,297.3l.55,2.49c.22.83.41,1.66.66,2.47A30.39,30.39,0,0,0,360,307l.28.59-.43-.48a17.88,17.88,0,0,1-2.9-4.81,38.35,38.35,0,0,1-1.79-5.33,83.12,83.12,0,0,1-2-11.05c-.44-3.72-.71-7.46-.88-11.2s-.22-7.48-.14-11.23v-.12l.13,0,1.44-.13-.08,0,5.26-4.75.12.27-5,.67H354c.07,0-.08.06-.13.11l-.23.16-.46.35-.9.72-1.77,1.5-3.5,3.06L340,271.57l.06-.11a33.79,33.79,0,0,0,0,7.11,67.4,67.4,0,0,0,1,7.08c.44,2.35,1,4.68,1.56,7s1.24,4.61,2,6.88l-.4.17-1.78-3.64-1.62-3.71a76.19,76.19,0,0,1-2.66-7.66,50.64,50.64,0,0,1-1.65-7.94c-.08-.67-.12-1.35-.19-2s-.08-1.35-.07-2a18.85,18.85,0,0,1,.35-4.09l.06-.29.29.12a3.44,3.44,0,0,0,2.15,0l-.09.05,14-11.73.08-.06h.09l6.25-.27-.2.48a5.48,5.48,0,0,0-4-1.61,16.36,16.36,0,0,0-4.49.52,39.94,39.94,0,0,0-8.55,3.28l-.19.1-.16-.15-2.88-2.62-.11-.1v-.15a51.53,51.53,0,0,1,.81-6.66,45.34,45.34,0,0,1,1.74-6.49,42.07,42.07,0,0,1,2.71-6.15,31.85,31.85,0,0,1,3.74-5.61l1.74-2.06-1.17,2.45a58.1,58.1,0,0,0-2.48,5.8,49.2,49.2,0,0,0-1.79,6,48.52,48.52,0,0,0-1,6.22,34.37,34.37,0,0,0-.05,6.25l-.45-.32,13.56-2.88.11,0,.11,0,3.06,1.08-.47.6-1.63-2.52.33.19-8.1-.19.22-.05-1.82,1-.31.18-.23-.28-1.93-2.41-.1-.14,0-.17a46.11,46.11,0,0,1,2.48-10,78.11,78.11,0,0,1,4.09-9.45l.81.36c-.5,1.52-1,3.06-1.4,4.61s-.77,3.11-1.06,4.69-.52,3.17-.65,4.76a29,29,0,0,0-.07,4.75l-.46-.42h9.29l.14.16,2.44,2.7-.81.13a5.81,5.81,0,0,1,.4-.74,4.49,4.49,0,0,1,.51-.66,2.59,2.59,0,0,1,1.6-.9l1-.12-.6.89a4.69,4.69,0,0,0-.66,1.4.71.71,0,0,0,0,.5c0,.05.06,0-.08,0s-.11.05-.06,0l-.09.27.05-1.12,0-.71.64.27a3.13,3.13,0,0,1,.87.53,1.52,1.52,0,0,1,.58,1.06l-.49-.47h1.16l-.5.47a1.52,1.52,0,0,1,.58-1.06,3.13,3.13,0,0,1,.87-.53l.65-.28,0,.72.05,1.12-.1-.27c.05.08.1,0-.05,0s-.09,0-.09,0a.71.71,0,0,0,0-.5,4.53,4.53,0,0,0-.66-1.39l-.61-.9,1.06.12a2.65,2.65,0,0,1,1.6.89,5.39,5.39,0,0,1,.51.67,6.45,6.45,0,0,1,.4.74l-.82-.14,2.44-2.69.14-.16H380l-.47.42a29,29,0,0,0-.07-4.75c-.13-1.59-.36-3.18-.65-4.76s-.65-3.14-1.06-4.69-.9-3.09-1.4-4.61l.82-.36a78.11,78.11,0,0,1,4.09,9.45,46.7,46.7,0,0,1,2.48,10l0,.17-.11.14-1.93,2.41-.22.29-.31-.18-1.83-1,.22.05-8.09.19.33-.19-1.63,2.52-.48-.6,3.06-1.09.11,0,.11,0,13.57,2.88-.46.32a34.37,34.37,0,0,0,0-6.25,48.52,48.52,0,0,0-1-6.22,49.2,49.2,0,0,0-1.79-6,59.11,59.11,0,0,0-2.48-5.8l-1.18-2.47,1.76,2.07a32.49,32.49,0,0,1,3.74,5.62A43.17,43.17,0,0,1,387.8,243a44,44,0,0,1,1.73,6.49,49.83,49.83,0,0,1,.81,6.66v.15l-.11.11L387.37,259l-.16.15-.2-.1a40.48,40.48,0,0,0-8.55-3.28,16.3,16.3,0,0,0-4.49-.51,5.46,5.46,0,0,0-4,1.6l-.21-.49,6.25.27h.1l.07.06,14,11.73-.09-.05a3.51,3.51,0,0,0,2.15,0l.29-.12.07.29a18.84,18.84,0,0,1,.34,4.09c0,.68,0,1.35-.06,2s-.12,1.35-.2,2a49.53,49.53,0,0,1-1.65,7.94,76.13,76.13,0,0,1-2.65,7.66l-1.63,3.71L385,299.69l-.41-.17c.73-2.27,1.37-4.57,2-6.88s1.13-4.64,1.56-7a67.4,67.4,0,0,0,1-7.08,33.79,33.79,0,0,0,0-7.11l.06.11-6.93-6.19-3.5-3.06-1.77-1.49-.9-.73-.45-.35-.23-.16c-.06,0-.21-.09-.14-.11h-.06l-5-.67.13-.27,5.26,4.75-.09,0,1.45.13H377v.13c.08,3.75,0,7.49-.14,11.23s-.43,7.48-.88,11.2A79.75,79.75,0,0,1,374,297a38.31,38.31,0,0,1-1.78,5.33,17.92,17.92,0,0,1-2.91,4.81l-.43.49.28-.6a30.39,30.39,0,0,0,1.77-4.78c.25-.81.44-1.64.67-2.47l.55-2.49a84.55,84.55,0,0,0,1.36-10.14c.3-3.4.35-6.82.35-10.23l-.13-5.12-.32-5.11v0h0a.86.86,0,0,0,.7-.78,2,2,0,0,0-.46-1.05c-.51-.6-1-1.18-1.6-1.75s-1.1-1.13-1.69-1.66a11.1,11.1,0,0,0-.91-.76,2.38,2.38,0,0,0-1-.52l0,0v1.22a3.35,3.35,0,0,1,1.3,2.12A9.32,9.32,0,0,1,370,266a21.62,21.62,0,0,1-.84,5c-.22.82-.45,1.63-.74,2.43s-.54,1.6-.87,2.38c-.59,1.58-1.3,3.12-2,4.66h0l-.74-.86h0a.29.29,0,0,0-.25-.16A.43.43,0,0,0,364.33,279.59Zm0,0a.43.43,0,0,1,.26-.16.27.27,0,0,1,.25.16h0l.74.85h0c.67-1.55,1.38-3.08,2-4.67.32-.78.59-1.58.86-2.38s.51-1.61.73-2.42a21.17,21.17,0,0,0,.83-5,9.62,9.62,0,0,0-.22-2.51,3.28,3.28,0,0,0-1.29-2.08h0v-1.29h0a2.25,2.25,0,0,1,1.07.53,11.13,11.13,0,0,1,.92.75c.59.53,1.15,1.09,1.7,1.66s1.1,1.15,1.61,1.76a2,2,0,0,1,.48,1.09.92.92,0,0,1-.77.85l0,0,.33,5.11.15,5.13c0,3.41,0,6.83-.33,10.24a85.11,85.11,0,0,1-1.34,10.16l-.55,2.5c-.22.83-.41,1.66-.66,2.48a30,30,0,0,1-1.77,4.82l-.14-.1a17.9,17.9,0,0,0,2.86-4.77,37.84,37.84,0,0,0,1.76-5.3,80.9,80.9,0,0,0,2-11c.43-3.71.69-7.44.85-11.18s.2-7.47.11-11.21l.13.14-1.45-.13h0l0,0-5.27-4.73-.37-.33.5.06,5,.66h-.06c.26,0,.27.1.38.14l.25.17.47.36.9.73,1.78,1.5,3.51,3.05,6.95,6.17.05,0v.07a34.66,34.66,0,0,1,.06,7.2,71.3,71.3,0,0,1-1,7.12c-.43,2.35-1,4.69-1.55,7s-1.23,4.63-2,6.92l-.41-.17,1.77-3.63,1.6-3.7a72.68,72.68,0,0,0,2.62-7.61,50.3,50.3,0,0,0,1.62-7.86c.07-.67.12-1.34.18-2s.08-1.34.06-2a17.92,17.92,0,0,0-.34-3.95l.36.18a3.19,3.19,0,0,1-1.28.21,5.18,5.18,0,0,1-1.23-.2h-.05l0,0-14-11.69.17.06-6.25-.25-.61,0,.4-.46a6.06,6.06,0,0,1,4.37-1.81,16.88,16.88,0,0,1,4.66.52,40.93,40.93,0,0,1,8.71,3.31l-.37.05,2.87-2.63-.11.26a50.11,50.11,0,0,0-.81-6.58,44.36,44.36,0,0,0-1.73-6.39,41.74,41.74,0,0,0-2.68-6,31.21,31.21,0,0,0-3.65-5.47l.57-.4a57.35,57.35,0,0,1,2.53,5.87,52,52,0,0,1,1.83,6.13,49.4,49.4,0,0,1,1,6.31,34.39,34.39,0,0,1,.06,6.42l0,.42-.42-.09-13.57-2.84.21,0-3,1.09-1.13.4.65-1,1.62-2.52.12-.18h.22l8.09-.2h.11l.11.06,1.82,1-.53.11,1.92-2.42-.09.31a46.54,46.54,0,0,0-2.46-9.81,80.3,80.3,0,0,0-4.06-9.32l.82-.35c.52,1.54,1,3.09,1.43,4.66s.79,3.16,1.09,4.76.53,3.22.68,4.85a30.11,30.11,0,0,1,.07,4.94l0,.42h-9.51l.36-.16-2.43,2.7-.5.55-.32-.69a4.16,4.16,0,0,0-.73-1.12,1.67,1.67,0,0,0-1-.58l.45-.78a5.49,5.49,0,0,1,.83,1.76,1.72,1.72,0,0,1-.12,1.2.91.91,0,0,1-.76.5.94.94,0,0,1-.77-.43l-.09-.11V253l-.05-1.12.67.44a2.36,2.36,0,0,0-.57.35.56.56,0,0,0-.24.36l0,.48h-2.11l0-.47a.66.66,0,0,0-.24-.36,2.14,2.14,0,0,0-.58-.35l.67-.44-.05,1.12v.16l-.09.11a1,1,0,0,1-.76.43.91.91,0,0,1-.76-.5,1.67,1.67,0,0,1-.12-1.2,5.53,5.53,0,0,1,.82-1.75l.45.77a1.57,1.57,0,0,0-1,.58,4.41,4.41,0,0,0-.73,1.12l-.32.68-.49-.54-2.43-2.7.36.16-9.08,0h-.44l0-.41a30.11,30.11,0,0,1,.07-4.94c.14-1.63.38-3.24.68-4.85s.67-3.18,1.09-4.76.91-3.12,1.43-4.66l.81.35a77.86,77.86,0,0,0-4.05,9.32,46,46,0,0,0-2.47,9.81l-.09-.31,1.93,2.42-.54-.1,1.83-1,.1-.05h.11l8.1.21h.21l.12.18,1.62,2.52.64,1-1.11-.39-3.06-1.09h.22l-13.57,2.85-.42.08,0-.41a34.39,34.39,0,0,1,.06-6.42,49.37,49.37,0,0,1,1-6.31,50.78,50.78,0,0,1,1.84-6.13,56.18,56.18,0,0,1,2.52-5.86l.57.39a32,32,0,0,0-3.65,5.47,42.85,42.85,0,0,0-2.68,6,44.36,44.36,0,0,0-1.73,6.39,50.11,50.11,0,0,0-.81,6.58l-.11-.25,2.87,2.62-.36-.05a41.06,41.06,0,0,1,8.7-3.31,17,17,0,0,1,4.67-.52,6,6,0,0,1,4.36,1.81l.4.46-.6,0-6.25.25.17-.06-14,11.69-.05,0,0,0a4.84,4.84,0,0,1-1.24.19,2.81,2.81,0,0,1-1.27-.21l.35-.17a18.55,18.55,0,0,0-.34,3.95c0,.67,0,1.34.06,2s.11,1.33.19,2a49.15,49.15,0,0,0,1.61,7.86,76.1,76.1,0,0,0,2.62,7.62l1.61,3.69,1.76,3.63-.4.17c-.73-2.29-1.37-4.6-2-6.92s-1.12-4.66-1.56-7a68.47,68.47,0,0,1-1-7.12,34,34,0,0,1,.06-7.2v-.07l.05,0,6.94-6.18,3.51-3.05,1.78-1.5.91-.73.47-.35.24-.17a.66.66,0,0,1,.39-.15H354l5-.65.49-.07-.37.33-5.27,4.73,0,0h-.05l-1.45.13.13-.14c-.09,3.74,0,7.48.11,11.21s.42,7.47.85,11.18a82.47,82.47,0,0,0,2,11,39.19,39.19,0,0,0,1.76,5.3A17.67,17.67,0,0,0,360,307l-.15.1a31,31,0,0,1-1.77-4.82c-.25-.82-.44-1.65-.66-2.48l-.54-2.5a85.13,85.13,0,0,1-1.35-10.16c-.29-3.41-.32-6.83-.32-10.24l.14-5.13.33-5.11,0,0a.91.91,0,0,1-.76-.85,2,2,0,0,1,.48-1.09c.51-.61,1.06-1.18,1.6-1.76s1.11-1.13,1.7-1.66c.3-.26.6-.52.92-.75a2.25,2.25,0,0,1,1.07-.53h0v1.28h0a3.27,3.27,0,0,0-1.28,2.08,9.22,9.22,0,0,0-.23,2.51,22.24,22.24,0,0,0,.83,5c.22.81.45,1.63.74,2.42s.53,1.6.85,2.38c.59,1.59,1.3,3.12,2,4.67h0Z"/></svg>