<svg id="man" xmlns="http://www.w3.org/2000/svg" viewBox="0 0 482.97 487.69"><defs><style>.cls-1{fill:#fafafa;stroke:#cf2e3a;}.cls-1,.cls-2{stroke-miterlimit:10;}.cls-2{fill:#cf2e3a;stroke:#fafafa;}</style></defs><title>man</title><polygon class="cls-1" points="386.85 201.83 396.61 202.7 393.15 182.31 399.2 202.7 403.77 202.7 407.6 182.31 408.47 202.7 416.37 204.55 412.05 166.99 403.15 167.42 401.61 184.45 394.63 167.58 386.85 167.58 386.85 201.83"/><polygon class="cls-1" points="417.36 204.55 426.69 206.16 426.13 197.01 430.33 197.01 431.32 206.16 440.83 209 427.98 167.58 417.36 167.58 417.36 204.55"/><polygon class="cls-2" points="424.52 189.97 428.85 189.97 424.52 173.92 424.52 189.97"/><polygon class="cls-1" points="432.18 167.42 440.33 167.58 448.73 184.45 443.42 167.58 452.19 167.58 464.05 213.2 454.05 211.96 444.04 184.45 451.33 209.74 439.59 208.63 432.18 167.42"/></svg>