<svg id="cuerpo" xmlns="http://www.w3.org/2000/svg" viewBox="0 0 482.97 487.69"><defs><style>.cls-1{fill:#1d6fa0;}.cls-1,.cls-5,.cls-6,.cls-7,.cls-8{stroke:#1d1d1b;stroke-miterlimit:10;}.cls-1,.cls-7,.cls-8{stroke-width:2px;}.cls-2{fill:#1b6185;}.cls-3,.cls-7{fill:#af1926;}.cls-4{fill:#1d1d1b;}.cls-6{fill:#fff;}.cls-8{fill:none;}.cls-9{fill:#070606;}.cls-10{fill:#010101;}.cls-11{fill:#183c4e;}</style></defs><title>spiderman</title><path class="cls-1" d="M131.5,278.14s-15.37-8.83-13.39-15.93l.08-11.48s-17.53-5.4-20-21.74c0,0,.53-2.85,2.51-3.47,0,0,12.88-10.3,13.5-12.7l66.47-2.49s17.38,15.49,19.69,15.2c0,0,4.45,1.7,2.31,8.05,0,0-13.52,17.32-23.23,24.19,0,0-2.3,14.62-6,19.91C173.46,277.68,150.5,274.42,131.5,278.14Z"/><path class="cls-2" d="M106,227.43S117.81,238,118.7,246a74.78,74.78,0,0,1,6.79-25.73C124.13,221.65,122.21,223.25,106,227.43Z"/><path class="cls-2" d="M150,218.69s-11.88,10.24-12.87,13.51c0,0,5.69-11.77,9.78-15.92C147,216.28,149.3,216.93,150,218.69Z"/><path class="cls-2" d="M179.18,245.21s3-14.62,8.5-15.15c0,0-15.1-4.24-15-6.26C172.66,223.8,178.52,240.34,179.18,245.21Z"/><path class="cls-3" d="M151.22,462.34a79.79,79.79,0,0,1-40.9-11.46c-33.67-23.56-40.25-53-39.85-73.57a99.29,99.29,0,0,1,8.83-38.88v-12l0-.19C89.11,276.53,143.46,276,145.77,276h.09c3-.19,6-.28,8.92-.28,33.62,0,49.66,12.72,57.2,23.39a45.81,45.81,0,0,1,8.34,23c10.77,15.66,14.92,40.91,15.09,42,5.28,37.54-16.72,60.25-18.67,62.18-18.69,23.93-40.73,36.06-65.51,36.06Z"/><path class="cls-4" d="M154.78,277.68c63.43,0,63.56,45.09,63.56,45.09,10.89,15.42,15.1,41.65,15.1,41.65,5.32,37.83-18.2,60.53-18.2,60.53-21.66,27.79-45,35.39-64,35.39a78.52,78.52,0,0,1-39.8-11.13C47.72,404.65,81.3,338.9,81.3,338.9V326.66c9.43-48,61.4-48.7,64.47-48.7h.14c3.09-.19,6-.28,8.87-.28m0-4c-2.89,0-5.91.09-9,.28h0a87.24,87.24,0,0,0-31.41,6.67c-20,8.51-32.84,24.16-37,45.26l-.08.38V338a102.12,102.12,0,0,0-8.83,39.29,84.18,84.18,0,0,0,7.75,37.6c6.72,14.39,17.8,27.05,32.91,37.62l0,0,0,0a82,82,0,0,0,42,11.8,73.72,73.72,0,0,0,32.8-7.69c12.4-6.11,23.91-15.87,34.22-29,2.6-2.61,24.49-25.87,19.16-63.75v-.08c-.18-1.08-4.32-26.28-15.11-42.34a48.17,48.17,0,0,0-8.67-23.52c-7.81-11.06-24.35-24.24-58.83-24.24Z"/><path class="cls-5" d="M135.27,312.55S92,310,77.5,346.66c0,0-7.89,28-6,40.66,0,0,39.78,5.44,61.68-35.16C133.18,352.16,143.44,335.08,135.27,312.55Z"/><path class="cls-6" d="M130.9,316.84s-58.28-2.64-53.08,67.84c0,0,7.44.9,12.4-1.57C90.22,383.11,144.85,363.47,130.9,316.84Z"/><path class="cls-5" d="M155.33,315.9S150.13,356.12,187,372c0,0,27.73,13.06,44.56,8.63,0,0-2.47-50.33-26.49-63.77C205.09,316.83,192.22,304.14,155.33,315.9Z"/><path class="cls-6" d="M227.87,377.41s.74-30.94-20.8-55.7c0,0-19.56-11.64-45.55-2C161.52,319.73,158.05,373.45,227.87,377.41Z"/><path class="cls-7" d="M169.73,218.69s3.42-7.48,11-8.14c0,0-19.35-19.39-21.41-19.81,0,0-10.23-17.49-14.86-2.8,0,0-.34,11.47,1.48,12.05S151.21,193.41,169.73,218.69Z"/><path class="cls-4" d="M144.65,192.28l2.83,3.61q1.41,1.81,2.86,3.59c1.93,2.37,3.87,4.72,5.91,7a80,80,0,0,0,6.41,6.48,28.21,28.21,0,0,0,3.62,2.74,10.9,10.9,0,0,0,4.18,1.72,10.22,10.22,0,0,1-4.42-1.29,28.62,28.62,0,0,1-3.87-2.58,56,56,0,0,1-6.66-6.4c-2-2.3-4-4.69-5.78-7.18A88.5,88.5,0,0,1,144.65,192.28Z"/><path class="cls-7" d="M162.88,238s11.48,1.52,13.17-4.18c0,0-10.84-34.52-29.35-34.13,0,0-4.66,2.32-1.52,6.22,0,0-1.42,3.62.73,5.08,0,0-1.31,3.23,2.53,5.56C148.44,216.55,162.75,232.18,162.88,238Z"/><path class="cls-4" d="M137.17,233.82a29.76,29.76,0,0,1,11.24-3,24.57,24.57,0,0,1,5.87.37,16.36,16.36,0,0,1,5.42,2.19,25.44,25.44,0,0,0-5.55-1.42,33.67,33.67,0,0,0-5.68-.14,49.39,49.39,0,0,0-5.67.73C140.92,232.87,139,233.28,137.17,233.82Z"/><path d="M171.86,237.44c-.71-1.6-1.46-3.16-2.28-4.69s-1.62-3.07-2.51-4.56c-1.76-3-3.61-5.91-5.6-8.75-1-1.41-2-2.84-3.05-4.21l-1.57-2.07-1.63-2c-2.16-2.72-4.48-5.3-6.78-7.92,1.28,1.18,2.56,2.37,3.8,3.59s2.43,2.51,3.57,3.84a88.79,88.79,0,0,1,6.48,8.23,85.11,85.11,0,0,1,5.45,8.95A58.28,58.28,0,0,1,171.86,237.44Z"/><path d="M168.21,238.1c-.61-1.21-1.2-2.43-1.85-3.61s-1.25-2.39-1.91-3.56c-1.33-2.34-2.7-4.66-4.16-6.91s-3-4.43-4.66-6.57c-.85-1-1.68-2.1-2.61-3.07s-1.86-1.95-2.78-2.95a39.62,39.62,0,0,1,6,5.53,57.49,57.49,0,0,1,4.91,6.51,70.86,70.86,0,0,1,4,7.1A57.2,57.2,0,0,1,168.21,238.1Z"/><path d="M160.15,232.52a18.65,18.65,0,0,1,3.18-1.84,22.11,22.11,0,0,1,3.46-1.29,14.57,14.57,0,0,1,3.68-.57,5.69,5.69,0,0,1,3.58.92,8,8,0,0,0-3.53-.14,26.53,26.53,0,0,0-3.47.75C164.75,231,162.49,231.79,160.15,232.52Z"/><path d="M155.94,225.53a21.19,21.19,0,0,1,5.49-5.8,12.57,12.57,0,0,1,3.62-1.87,5.54,5.54,0,0,1,4,0,7,7,0,0,0-3.75.68,18.11,18.11,0,0,0-3.3,1.95C159.9,222,158,223.78,155.94,225.53Z"/><path d="M150.91,218.93a9.78,9.78,0,0,1,1.42-3.61,16.36,16.36,0,0,1,2.47-3,19.41,19.41,0,0,1,4.77-3.32c.6-.26,1.18-.53,1.79-.74-1,.78-2.05,1.53-3,2.31s-1.94,1.59-2.83,2.47a27.5,27.5,0,0,0-2.52,2.76A18.47,18.47,0,0,0,150.91,218.93Z"/><path class="cls-7" d="M114.21,212.62s4.75-.25,8.2,2.16a8,8,0,0,1,3.43,6.17s4.24-10.52,11.17-15.72c0,0,4.09-5.29,5.82-6,0,0,3.84-7.18,2.23-11.3a11.43,11.43,0,0,0-7.25-6.62,8.09,8.09,0,0,0-4.47,0S123.33,205.17,114.21,212.62Z"/><path class="cls-7" d="M133.93,239.77s-12.43,1.17-12.5-7.65c0,0,3.82-17.8,15-26.89,2.64-4.32,6-6.58,8.09-5.79a2.9,2.9,0,0,1,1.48,1.3,3.68,3.68,0,0,1,2.21,5.17s1.79-.31,2.62.73c1.82,2.27-3.48,9.18-3.84,9.64-.65.85-1.39,1.66-1.39,1.66-.53.59-.95,1-1,1.08-2.18,2.15-5.41,8.41-5.41,8.41-1.47,2.84-2.41,5-2.62,5.5C135.35,235.59,134.52,237.93,133.93,239.77Z"/><path class="cls-4" d="M166,278.14a81.37,81.37,0,0,0,1-16.93,75.45,75.45,0,0,0-2.46-16.72,64.3,64.3,0,0,0-2.7-8A54.13,54.13,0,0,0,158,229a52.64,52.64,0,0,0-10.82-12.83h.65a31.44,31.44,0,0,0-4.12,4.75,57.05,57.05,0,0,0-3.43,5.34,76.61,76.61,0,0,0-5.23,11.61l-1,3-.91,3.06-.46,1.53-.39,1.55-.76,3.11c-.47,2.08-.83,4.18-1.25,6.27l-.93,6.33v0A38.5,38.5,0,0,0,130.6,271a18.35,18.35,0,0,0,1.51,3.93,8.8,8.8,0,0,0,2.67,3.23A8.83,8.83,0,0,1,132,275a18.77,18.77,0,0,1-1.64-3.93,39.7,39.7,0,0,1-1.5-8.39h0v0l.83-6.38c.39-2.1.72-4.22,1.16-6.32l.71-3.14.37-1.56.43-1.55.88-3.1,1-3.05a76,76,0,0,1,5.23-11.78,57.54,57.54,0,0,1,3.46-5.45,31.53,31.53,0,0,1,4.26-4.94l.31-.29.34.29a54.72,54.72,0,0,1,14.74,20.79,55.65,55.65,0,0,1,2.65,8.14,75.38,75.38,0,0,1,2.21,16.9A78.23,78.23,0,0,1,166,278.14Z"/><path class="cls-8" d="M147.53,215.75c7.76-10.46.64-10.15.64-10.15,1.26-4-2.26-4.71-2.26-4.71,1-3.34,5.83-.62,5.83-.62,28,15.48,28.1,57.07,28.1,57.07"/><path class="cls-4" d="M118.11,251.81a103.17,103.17,0,0,1,1.5-12.74,96.33,96.33,0,0,1,3.08-12.48,59.79,59.79,0,0,1,5.13-11.82,34.75,34.75,0,0,1,8.27-9.93L136,205a28.79,28.79,0,0,1,2-2.54,17.14,17.14,0,0,1,2.34-2.24,5.82,5.82,0,0,1,3.11-1.39,2.73,2.73,0,0,1,1.78.53,4.28,4.28,0,0,1,1.13,1.36l.17.29-.24.25c-2.44,2.65-4.78,5.4-7,8.21s-4.47,5.68-6.51,8.66a78.28,78.28,0,0,0-5.56,9.26c-1.58,3.22-3,6.65-3,10.3-.15-3.65,1.17-7.18,2.64-10.47a71.15,71.15,0,0,1,5.38-9.46,144.18,144.18,0,0,1,13.42-17.13l-.07.54a2.2,2.2,0,0,0-2.05-1.39,5,5,0,0,0-2.55,1.2,17.69,17.69,0,0,0-2.19,2.14,26.15,26.15,0,0,0-1.91,2.43l-.05.07-.06,0a34.1,34.1,0,0,0-8.1,9.61,51.94,51.94,0,0,0-2.87,5.67q-1.29,2.91-2.33,5.94a101.91,101.91,0,0,0-3.33,12.33A117.07,117.07,0,0,0,118.11,251.81Z"/><path d="M124.13,223.86a10.59,10.59,0,0,1,8.12,1.44,9.9,9.9,0,0,1,3,3,11.1,11.1,0,0,1,1,1.87,19.92,19.92,0,0,1,.59,2c-.38-.59-.65-1.22-1-1.78a17.76,17.76,0,0,0-1.17-1.63,11.74,11.74,0,0,0-2.91-2.63,12.77,12.77,0,0,0-3.58-1.63A18.16,18.16,0,0,0,124.13,223.86Z"/><path class="cls-9" d="M129.58,212.84a15.11,15.11,0,0,1,4.25-.12,14.81,14.81,0,0,1,4.16,1.06,10.68,10.68,0,0,1,3.55,2.51,8.16,8.16,0,0,1,1.84,3.85,11.63,11.63,0,0,0-2.4-3.3,12.87,12.87,0,0,0-3.39-2.14,21.18,21.18,0,0,0-3.89-1.21A36.84,36.84,0,0,0,129.58,212.84Z"/><path d="M148.17,205.91c-1,1.3-2,2.59-2.93,3.91s-1.93,2.61-2.86,3.94c-1.87,2.66-3.7,5.33-5.4,8.09a70.75,70.75,0,0,0-4.6,8.52,25.33,25.33,0,0,0-1.57,4.56,11.9,11.9,0,0,0-.33,4.79,11.2,11.2,0,0,1-.16-4.89,26,26,0,0,1,1.35-4.75,51.92,51.92,0,0,1,4.46-8.76,93.08,93.08,0,0,1,5.63-8A90.26,90.26,0,0,1,148.17,205.91Z"/><path class="cls-10" d="M136.82,181.23a30.82,30.82,0,0,1-.29,4.7,45.63,45.63,0,0,1-1,4.62,43.75,43.75,0,0,1-3.37,8.81,46.3,46.3,0,0,1-5.11,7.94c-.94,1.26-2,2.38-3.09,3.55s-2.28,2.16-3.44,3.21a81.18,81.18,0,0,0,5.92-7.23l1.33-1.9,1.23-2c.43-.65.8-1.32,1.17-2s.78-1.34,1.1-2.05a56.23,56.23,0,0,0,3.52-8.58A46,46,0,0,0,136.82,181.23Z"/><path class="cls-10" d="M134.28,207.21c1-1.77,2-3.51,2.8-5.32s1.63-3.63,2.31-5.5,1.29-3.76,1.82-5.68,1-3.87,1.35-5.85a27.84,27.84,0,0,1-.59,6,37.38,37.38,0,0,1-1.64,5.85,34.93,34.93,0,0,1-2.57,5.51A31.13,31.13,0,0,1,134.28,207.21Z"/><path class="cls-10" d="M128.69,190.35a18,18,0,0,1,7.53,2.78,15.62,15.62,0,0,1,3.07,2.67,10.87,10.87,0,0,1,2.05,3.48,21.66,21.66,0,0,0-2.61-2.94,24.27,24.27,0,0,0-3.06-2.37,37.55,37.55,0,0,0-3.38-1.95C131.12,191.44,129.93,190.87,128.69,190.35Z"/><path class="cls-10" d="M122.11,202a12.88,12.88,0,0,1,3.34,0,13.29,13.29,0,0,1,3.27.82,8.23,8.23,0,0,1,2.9,1.84,4.86,4.86,0,0,1,1.43,3,7.82,7.82,0,0,0-4.7-4A43.33,43.33,0,0,0,122.11,202Z"/><path class="cls-10" d="M118.11,207.21a13.59,13.59,0,0,1,3.47.44,14.27,14.27,0,0,1,3.29,1.3,12.28,12.28,0,0,1,1.49,1,7.14,7.14,0,0,1,1.21,1.36,4.58,4.58,0,0,1,.76,3.44,5.89,5.89,0,0,0-1.38-3,9.15,9.15,0,0,0-2.57-2A39.89,39.89,0,0,0,118.11,207.21Z"/><path d="M148.67,182.19A37.43,37.43,0,0,0,151,186.7c.82,1.48,1.73,2.89,2.67,4.29a96.93,96.93,0,0,0,6.14,8l1.65,1.9c.56.64,1.15,1.23,1.72,1.86,1.11,1.26,2.35,2.41,3.51,3.63s2.44,2.33,3.65,3.51,2.52,2.25,3.75,3.42c-1.37-1-2.72-2-4.07-3.05s-2.61-2.17-3.86-3.32a79.16,79.16,0,0,1-7.11-7.31,65.48,65.48,0,0,1-6-8.23A39.09,39.09,0,0,1,148.67,182.19Z"/><path d="M161,207.21a3.17,3.17,0,0,1,.76-1.3,11.77,11.77,0,0,1,1.07-1,21.62,21.62,0,0,1,2.36-1.8,23.84,23.84,0,0,1,5.25-2.68,42.61,42.61,0,0,1-4.7,3.52l-2.44,1.58A10.83,10.83,0,0,0,161,207.21Z"/><path d="M161.36,192.28c-1.94,1.15-3.91,2.14-5.8,3.26a23.83,23.83,0,0,0-2.7,1.79,3.72,3.72,0,0,0-1.69,2.59,2.25,2.25,0,0,1,.14-1.72,5.45,5.45,0,0,1,1-1.44,12.18,12.18,0,0,1,2.73-2.08,21.93,21.93,0,0,1,3.05-1.47A17.27,17.27,0,0,1,161.36,192.28Z"/><path class="cls-4" d="M137.82,322.36a22.11,22.11,0,0,0,4.44,1.17,15.49,15.49,0,0,0,4.35.08,7.93,7.93,0,0,0,1.07-.17,5.57,5.57,0,0,0,1.06-.23l1.06-.28c.34-.14.69-.26,1-.38l.53-.19.51-.24,1.05-.45c.7-.33,1.37-.72,2.14-1a18.28,18.28,0,0,1-1.58,1.84,14.12,14.12,0,0,1-2,1.47,11.54,11.54,0,0,1-4.7,1.65,10.87,10.87,0,0,1-5-.56A9.28,9.28,0,0,1,137.82,322.36Z"/><path class="cls-4" d="M139.73,321.87a17.15,17.15,0,0,0,5.89,1.27,8.14,8.14,0,0,0,2.76-.5,12.41,12.41,0,0,0,1.41-.55c.49-.21.93-.5,1.49-.71a7.22,7.22,0,0,1-.88,1.48,6.37,6.37,0,0,1-1.3,1.18,6,6,0,0,1-3.44,1.1,6.93,6.93,0,0,1-3.46-.88A6.45,6.45,0,0,1,139.73,321.87Z"/><path class="cls-4" d="M140.64,321.38l2.4.88a9.46,9.46,0,0,0,2.1.52,4.1,4.1,0,0,0,1.91-.25,13.3,13.3,0,0,0,2.17-1.15,3.89,3.89,0,0,1-1.34,2.48,3.85,3.85,0,0,1-2.94.91,5.16,5.16,0,0,1-2.68-1.16A5.08,5.08,0,0,1,140.64,321.38Z"/><path class="cls-4" d="M140.64,458.87a143.13,143.13,0,0,0,4.29-16.36c1.22-5.5,2.13-11.06,3-16.62,1.62-11.15,2.6-22.37,3.15-33.62l.32-8.44c.11-2.81,0-5.63.08-8.44.15-5.64-.11-11.26-.2-16.9,0-2.82-.22-5.63-.36-8.45l-.42-8.45c-.36-5.63-.91-11.24-1.26-16.89q.61,4.2,1.15,8.4c.36,2.8.78,5.6,1.08,8.41l.76,8.45c.25,2.82.51,5.63.61,8.46.27,5.65.57,11.31.54,17,0,2.83.07,5.66,0,8.49l-.28,8.49a281.31,281.31,0,0,1-3.61,33.76c-1,5.58-2.11,11.13-3.56,16.61A122.9,122.9,0,0,1,140.64,458.87Z"/><path class="cls-8" d="M210.29,428.91s-44-22.64-58.17-106.14"/><path class="cls-4" d="M97.07,438.81a91.06,91.06,0,0,0,10.87-11.52,136.7,136.7,0,0,0,9.23-12.84,165.46,165.46,0,0,0,14.29-28.15,196.46,196.46,0,0,0,9.18-30.25,263.68,263.68,0,0,0,4.87-31.35,188.46,188.46,0,0,1-3.34,31.67c-.95,5.24-2.29,10.4-3.7,15.53s-3.2,10.17-5.15,15.13-4.19,9.81-6.65,14.55a137.67,137.67,0,0,1-8.2,13.72,117.23,117.23,0,0,1-9.79,12.62c-1.77,2-3.63,3.9-5.55,5.73A59.41,59.41,0,0,1,97.07,438.81Z"/><path class="cls-4" d="M147,324c.27-.95.55-1.9.84-2.83s.62-1.85.83-2.81c.49-1.89,1-3.76,1.4-5.67a89.13,89.13,0,0,0,1.81-11.47,89.94,89.94,0,0,0,.42-11.61,88.23,88.23,0,0,0-1-11.65,44.31,44.31,0,0,1,2.57,11.56,61.2,61.2,0,0,1-2.28,23.56A54,54,0,0,1,147,324Z"/><path class="cls-4" d="M125.78,281.19c3.05,7.36,6.06,14.66,9.4,21.81,1.66,3.57,3.45,7.08,5.29,10.57s3.92,6.83,6.07,10.2a59.15,59.15,0,0,1-7.41-9.41,96.69,96.69,0,0,1-5.76-10.52,117,117,0,0,1-4.45-11.11A85.18,85.18,0,0,1,125.78,281.19Z"/><path class="cls-4" d="M179.26,281.19a64.11,64.11,0,0,1-10.82,27.29,53.42,53.42,0,0,1-4.81,5.71,40.45,40.45,0,0,1-5.78,4.75,34,34,0,0,1-6.63,3.4A30.69,30.69,0,0,1,144,324a42.78,42.78,0,0,0,6.81-2.56,39.44,39.44,0,0,0,6.12-3.77,48,48,0,0,0,9.86-10.36A77.12,77.12,0,0,0,174,294.8,111.57,111.57,0,0,0,179.26,281.19Z"/><path class="cls-4" d="M203.41,293.4a6.37,6.37,0,0,1-1,3.85,19.13,19.13,0,0,1-1.1,1.71c-.41.52-.83,1.05-1.28,1.54a35.31,35.31,0,0,1-6.06,5.15,54.8,54.8,0,0,1-6.84,3.94,52.91,52.91,0,0,1-7.3,2.92c2.14-1.54,4.36-2.88,6.54-4.29,1.1-.68,2.18-1.38,3.26-2.09s2.14-1.41,3.21-2.12a65.73,65.73,0,0,0,6.09-4.61c.49-.41.92-.87,1.39-1.29s.9-.91,1.28-1.4A7.41,7.41,0,0,0,203.41,293.4Z"/><path class="cls-4" d="M97.07,295.38c2.55,1.61,5,3.31,7.34,5s4.74,3.45,7.09,5.19l7,5.18,7.23,5.12a34.89,34.89,0,0,1-8.45-3.12,57.48,57.48,0,0,1-7.61-4.77,64,64,0,0,1-6.81-5.81A44.36,44.36,0,0,1,97.07,295.38Z"/><path class="cls-4" d="M215.24,310.9a6,6,0,0,1-1.79,1.57,16.66,16.66,0,0,1-2.09,1.1,27.87,27.87,0,0,1-4.41,1.48,32.05,32.05,0,0,1-4.55.78,24,24,0,0,1-4.65.07,32.06,32.06,0,0,1,4.34-1.6c1.46-.44,2.92-.84,4.38-1.19s2.94-.68,4.4-1l2.19-.52A11.64,11.64,0,0,0,215.24,310.9Z"/><path class="cls-4" d="M229.27,381.76a55.46,55.46,0,0,0-5.35,3.32c-1.75,1.17-3.42,2.44-5.06,3.75a71.41,71.41,0,0,0-9,8.72,54.58,54.58,0,0,0-7.14,10.21l-1.43,2.77c-.41,1-.77,1.92-1.17,2.88l-.58,1.44-.43,1.49-.86,3-.2.66-.69-.06a74.32,74.32,0,0,0-12.75-.09A78.3,78.3,0,0,0,172,421.76c-1,.22-2.08.47-3.1.78s-2.05.57-3.07.89c-2,.71-4,1.33-6,2.21a82.06,82.06,0,0,0-11.36,5.8l-.72.42-.56-.63a21.77,21.77,0,0,0-3.26-2.88c-.6-.43-1.21-.86-1.85-1.24s-1.28-.77-1.94-1.12a39.44,39.44,0,0,0-8.37-3.21,44.44,44.44,0,0,0-4.43-.87,44.92,44.92,0,0,0-4.49-.46c-1.51-.12-3,0-4.53-.06l-4.54.28-.67,0-.2-.62a40.78,40.78,0,0,0-4.91-9.61,52.27,52.27,0,0,0-7-8.38c-.63-.67-1.35-1.24-2-1.86a27.16,27.16,0,0,0-2.1-1.76l-2.15-1.7-2.27-1.54c-1.49-1.08-3.13-1.91-4.71-2.85s-3.29-1.61-4.94-2.43l-.08,0,0-.06a20.49,20.49,0,0,0-1.85-3.61,8.85,8.85,0,0,0-1.28-1.58,3.28,3.28,0,0,0-1.74-1,3.4,3.4,0,0,1,1.81.91A9.16,9.16,0,0,1,81,387.13a19.47,19.47,0,0,1,2,3.58l-.1-.11c1.68.76,3.41,1.43,5.07,2.26s3.32,1.66,4.86,2.7a53.58,53.58,0,0,1,8.89,6.71,54.59,54.59,0,0,1,7.35,8.42,42.12,42.12,0,0,1,5.33,9.93l-.88-.58c1.55-.13,3.1-.28,4.66-.36s3.12-.08,4.67,0,3.12.18,4.67.44a45.62,45.62,0,0,1,4.61.87,40.56,40.56,0,0,1,8.81,3.31,28.11,28.11,0,0,1,7.68,5.66l-1.27-.21a72.71,72.71,0,0,1,11.66-5.95c2-.88,4.1-1.5,6.16-2.22,1-.32,2.1-.59,3.15-.88s2.11-.56,3.18-.78a81.73,81.73,0,0,1,12.93-1.87,68.36,68.36,0,0,1,13.1.26l-.89.6,1-3.06.48-1.53.63-1.48c.42-1,.83-2,1.27-2.93l1.53-2.81a55.85,55.85,0,0,1,7.53-10.26,70.63,70.63,0,0,1,9.42-8.47A65.77,65.77,0,0,1,229.27,381.76Z"/><path class="cls-4" d="M189,371.47c-1.61.9-3.19,1.84-4.75,2.8s-3.08,2-4.55,3.07a36.7,36.7,0,0,0-4.16,3.46,14.34,14.34,0,0,0-1.7,2,5.14,5.14,0,0,0-.94,2.15l-.09.76-.81-.06a34.45,34.45,0,0,0-5.18,0,32.36,32.36,0,0,0-5.11.8,23.26,23.26,0,0,0-4.79,1.76,17.58,17.58,0,0,0-4,2.94l-.73.69-.77-.77s-.18-.18-.3-.28a5.15,5.15,0,0,0-.45-.32,8.73,8.73,0,0,0-1-.58,15.06,15.06,0,0,0-2.23-.9,33.27,33.27,0,0,0-4.83-1.12c-1.65-.26-3.32-.42-5-.52-.84,0-1.68-.1-2.53-.12l-2.53,0h-.76v-.74a7.11,7.11,0,0,0-.44-2.12,12.61,12.61,0,0,0-1-2.08,15.4,15.4,0,0,0-3-3.56,23.72,23.72,0,0,0-3.9-2.78l-2.15-1.11-2.22-1,2.33.74c.76.29,1.51.61,2.27.92a24.47,24.47,0,0,1,4.26,2.52,15.59,15.59,0,0,1,3.51,3.6,11.67,11.67,0,0,1,1.21,2.26,8.26,8.26,0,0,1,.64,2.62l-.77-.76c1.72-.05,3.45-.11,5.18-.05s3.46.17,5.19.39a31,31,0,0,1,5.16,1.11,18.42,18.42,0,0,1,2.51,1,11.58,11.58,0,0,1,1.22.7,5.9,5.9,0,0,1,.59.43,3.73,3.73,0,0,1,.63.6l-1.5-.09a18.71,18.71,0,0,1,4.57-3.31,25.22,25.22,0,0,1,5.24-1.87,32.56,32.56,0,0,1,5.45-.72,31.69,31.69,0,0,1,5.5.18l-.9.69a6.48,6.48,0,0,1,1.32-2.81,15.93,15.93,0,0,1,2-2.11,35.82,35.82,0,0,1,4.52-3.31c1.58-1,3.21-1.87,4.85-2.71S187.29,372.17,189,371.47Z"/><path class="cls-4" d="M132.75,352.93a26.19,26.19,0,0,1,4.69,1.1,18.49,18.49,0,0,1,2.28.93,8.2,8.2,0,0,1,2.15,1.48l-1-.15a13,13,0,0,1,2.76-1.33,11.33,11.33,0,0,1,3-.68,9.17,9.17,0,0,1,3.2.33,7.9,7.9,0,0,1,2.83,1.65l-1.2-.08a10.9,10.9,0,0,1,2.07-1.05,11.8,11.8,0,0,1,2.22-.64,8.47,8.47,0,0,1,2.36-.05,6.14,6.14,0,0,1,2.27.82l-.9.31a9.56,9.56,0,0,1,1-1.45,7.63,7.63,0,0,1,1.19-1.22,5.1,5.1,0,0,1,1.47-.87,3.74,3.74,0,0,1,1.65-.2,4.2,4.2,0,0,0-2.59,1.6,7.67,7.67,0,0,0-.86,1.27,9.26,9.26,0,0,0-.64,1.36l-.2.58-.69-.27A5.57,5.57,0,0,0,158,356a8.06,8.06,0,0,0-1.88.23,10.23,10.23,0,0,0-1.83.65,13.66,13.66,0,0,0-1.7.94l-.6.4-.6-.48a6.16,6.16,0,0,0-2.12-1.18,7.54,7.54,0,0,0-2.48-.29,12.51,12.51,0,0,0-2.59.47,15.39,15.39,0,0,0-2.48,1L141,358l-.37-.47a6.74,6.74,0,0,0-1.62-1.37,17.16,17.16,0,0,0-2-1.17c-.69-.37-1.39-.72-2.11-1.05S133.49,353.25,132.75,352.93Z"/><path class="cls-4" d="M91,323.77A53.79,53.79,0,0,0,95.51,319a45.28,45.28,0,0,0,3.9-5.26,32.82,32.82,0,0,0,2.9-5.81,19.58,19.58,0,0,0,1.17-6.25v-.54l.57-.08a39.74,39.74,0,0,0,6.81-1.65,36.59,36.59,0,0,0,6.38-2.87,27.49,27.49,0,0,0,5.56-4.13A23.92,23.92,0,0,0,127,287l.39-.65.72.21a45.33,45.33,0,0,0,6.07,1.24,40.21,40.21,0,0,0,6.19.39,30.12,30.12,0,0,0,6.08-.77,18.92,18.92,0,0,0,5.48-2.4l.58-.38.56.4a37.63,37.63,0,0,0,5.19,3.06,43.81,43.81,0,0,0,5.6,2.28,30.51,30.51,0,0,0,5.87,1.3,26,26,0,0,0,6,0l.35,0,.25.18c3,2.2,6.12,4.31,9.28,6.3,1.59,1,3.18,2,4.82,2.84a19.1,19.1,0,0,0,5,2l.33.07.09.28a16.33,16.33,0,0,0,1.95,4,14.17,14.17,0,0,0,3,3.29,13,13,0,0,0,1.87,1.25,13.52,13.52,0,0,0,2.09.86,14.8,14.8,0,0,0,4.49.72,15,15,0,0,1-4.57-.43,12.93,12.93,0,0,1-2.19-.77,15.69,15.69,0,0,1-2-1.2,15,15,0,0,1-3.33-3.28,16.88,16.88,0,0,1-2.27-4.13l.42.34a19.42,19.42,0,0,1-5.47-1.93c-1.71-.84-3.36-1.76-5-2.71-3.25-1.94-6.41-4-9.53-6.13l.6.15a26.88,26.88,0,0,1-6.4.11,33.05,33.05,0,0,1-6.24-1.27,42.22,42.22,0,0,1-11.4-5.55l1.14,0a20.82,20.82,0,0,1-6.1,2.71,30.23,30.23,0,0,1-6.53.81,42.55,42.55,0,0,1-6.49-.44,41.81,41.81,0,0,1-6.37-1.36l1.11-.44a26,26,0,0,1-4.62,5.8,28.5,28.5,0,0,1-6,4.29,38.14,38.14,0,0,1-6.74,2.82,36.57,36.57,0,0,1-7.14,1.51l.57-.63a20.3,20.3,0,0,1-1.47,6.61,30.85,30.85,0,0,1-3.26,5.84,46,46,0,0,1-4.2,5.13A46.8,46.8,0,0,1,91,323.77Z"/><path class="cls-4" d="M120.73,313.4c1-1,2.24-1.95,3.34-2.92s2.2-2,3.25-3a33,33,0,0,0,3-3.19,11,11,0,0,0,2.11-3.52l.21-.68.73.13a74.22,74.22,0,0,0,9.74,1,37,37,0,0,0,4.83-.14,18.17,18.17,0,0,0,4.59-.94l.56-.21.44.38a39.16,39.16,0,0,0,3.26,2.52,27.5,27.5,0,0,0,3.53,2.12,17.26,17.26,0,0,0,3.77,1.48,9.47,9.47,0,0,0,3.92.22l.35-.06.21.22c1.22,1.27,2.47,2.55,3.75,3.77.65.61,1.31,1.21,2,1.76a13.13,13.13,0,0,0,1.07.77,2.73,2.73,0,0,0,.59.3.67.67,0,0,0,.63,0,.74.74,0,0,1-.66.09,3.55,3.55,0,0,1-.65-.22,7.72,7.72,0,0,1-1.2-.65c-.76-.47-1.5-1-2.22-1.54-1.44-1.09-2.82-2.23-4.16-3.45l.56.16a10.11,10.11,0,0,1-4.51.07,17.48,17.48,0,0,1-4.21-1.39,29,29,0,0,1-3.82-2.12,31.19,31.19,0,0,1-3.51-2.6l1,.17a19.7,19.7,0,0,1-5.11,1.13,39.38,39.38,0,0,1-5.09.09,49.73,49.73,0,0,1-5-.46c-1.66-.23-3.31-.48-5-.86l1-.55a12.46,12.46,0,0,1-2.62,3.93,36.79,36.79,0,0,1-3.33,3.06c-1.16.94-2.37,1.81-3.59,2.66l-1.85,1.25C122,312.59,121.29,312.94,120.73,313.4Z"/><path class="cls-3" d="M132.53,277.71c-11.23-11,1.36-41.34,1.91-42.63,2-4,7.08-6,15.23-6a59.27,59.27,0,0,1,10.22.93l.42.08.23.36c9.19,14.3,9.05,31,8.15,39.7a58.48,58.48,0,0,1-1.08,6.85l-.24,1-1-.24a59.85,59.85,0,0,0-14-1.45,115.36,115.36,0,0,0-19,1.7l-.51.1Z"/><path class="cls-4" d="M149.67,230.06a59.36,59.36,0,0,1,10,.91c9,13.93,8.92,30.15,8,39.06a54.93,54.93,0,0,1-1.06,6.72,61.27,61.27,0,0,0-14.26-1.48A114.34,114.34,0,0,0,133.23,277c-10.87-10.63,2.13-41.52,2.13-41.52,2.13-4.36,8.59-5.41,14.31-5.41m0-2c-8.56,0-14,2.2-16.11,6.53l0,0,0,.06C133,236,120.12,267,131.83,278.42l.75.73,1-.19a112.5,112.5,0,0,1,18.76-1.69,58.89,58.89,0,0,1,13.79,1.42l1.94.48.48-1.95a58.89,58.89,0,0,0,1.1-7c.92-8.81,1.06-25.78-8.3-40.34l-.46-.72-.84-.16a60.54,60.54,0,0,0-10.41-.95Z"/><path class="cls-4" d="M150.33,247.74l.26-.3c2.74,5.93,1,6.69,1,6.69v.44c.42,0,1.83-1.61,1.83-1.61.46-.58-.07-.7-.07-.7.78-9.91-1.48-14.16-1.48-14.16,3,3.37,2.68,15.27,2.68,15.27l-.51,0-1.85,1.66,1.76-.23c.18,0,4.93-4.25,4.93-4.25.51-3.55-1.57-9.87-1.57-9.87,3.65,7.1,2.66,10.84,2.66,10.84a1.38,1.38,0,0,0-.82,0l-4.9,4.11-2.2.09c1.5,1.71,6.09-.74,6.09-.74l1,.92a14.63,14.63,0,0,1-3.13,8.66,16.18,16.18,0,0,0,1.88-8.6l-4.76,1-1.07-.39.57.89,2.84.07.64-.37.67.85a22.69,22.69,0,0,1-2.29,6.76,16.59,16.59,0,0,0,1.13-6.66h-3.18l-.86-.95s-.27.66-.73.7c0,0,.41-.58.23-.86,0,0-.11-.17-.24,0l0,.39s-.38-.15-.4-.4H150c0,.25-.4.4-.4.4l0-.39c-.13-.18-.24,0-.24,0-.18.28.24.86.24.86-.47,0-.74-.7-.74-.7l-.86.95h-3.18a16.59,16.59,0,0,0,1.13,6.66,22.69,22.69,0,0,1-2.29-6.76l.67-.85.64.37,2.84-.07.57-.89-1.07.39-4.76-1a16.18,16.18,0,0,0,1.88,8.6,14.63,14.63,0,0,1-3.13-8.66l1-.92s4.59,2.45,6.09.74l-2.2-.09-4.9-4.11a1.38,1.38,0,0,0-.82,0s-1-3.74,2.66-10.84c0,0-2.08,6.32-1.57,9.87,0,0,4.75,4.29,4.93,4.25l1.76.23-1.85-1.66-.51,0s-.36-11.9,2.68-15.27c0,0-2.26,4.25-1.48,14.16,0,0-.53.12-.07.7,0,0,1.41,1.61,1.83,1.61v-.44s-1.73-.76,1-6.69l.26.3S150.22,247.87,150.33,247.74Z"/><path class="cls-4" d="M150.33,247.74l.26-.3h0a22.21,22.21,0,0,1,1.26,3.32,8,8,0,0,1,.3,1.75,1.93,1.93,0,0,1-.54,1.64v.42l0,0a1.73,1.73,0,0,0,.68-.44c.21-.19.4-.38.59-.58s.39-.41.56-.62a.65.65,0,0,0,.16-.36.28.28,0,0,0-.24-.26h0v0c.09-1.19.15-2.39.16-3.58s0-2.4-.13-3.59a28.3,28.3,0,0,0-.48-3.55,14.82,14.82,0,0,0-1-3.41l-.16-.35.25.29a8.93,8.93,0,0,1,1.65,3.56,30,30,0,0,1,.7,3.88,60.76,60.76,0,0,1,.38,7.86v.08h-.09l-.5,0,.05,0-1.83,1.67-.09-.19,1.75-.24h0s0,0,0,0l.08,0,.16-.12.31-.26.62-.52,1.22-1.08,2.42-2.18,0,.09a16.79,16.79,0,0,0-.35-4.94,42.64,42.64,0,0,0-1.26-4.85l.37-.15c.43.84.84,1.7,1.21,2.58a27.83,27.83,0,0,1,.95,2.7,17.64,17.64,0,0,1,.59,2.8,9.54,9.54,0,0,1,0,2.92l-.06.3-.3-.13a1,1,0,0,0-.63,0l.09,0-4.88,4.13-.08.06h-.1l-2.19.1.22-.51a1.72,1.72,0,0,0,1.24.48,6.13,6.13,0,0,0,1.52-.18,14.12,14.12,0,0,0,2.93-1.14l.22-.11.18.16,1,.91.12.11V256a17.21,17.21,0,0,1-.28,2.37,16.34,16.34,0,0,1-.61,2.31,14.8,14.8,0,0,1-1,2.2,11.3,11.3,0,0,1-1.34,2l-2.08,2.46,1.43-2.91a18.64,18.64,0,0,0,1.46-4.09,17.62,17.62,0,0,0,.34-2.14,11.67,11.67,0,0,0,0-2.13l.52.36-4.75,1-.12,0-.12,0-1.08-.38.52-.66.58.88-.37-.2,2.84.07-.23.05.64-.36.33-.19.24.3.68.85.12.15,0,.18a16.6,16.6,0,0,1-.89,3.58,26.81,26.81,0,0,1-1.45,3.36l-.85-.38a25.42,25.42,0,0,0,.85-3.22c.09-.54.17-1.09.22-1.63a10.78,10.78,0,0,0,0-1.6l.48.42h-3.4l-.15-.16-.85-.95.82-.14a2.29,2.29,0,0,1-.38.59,1.25,1.25,0,0,1-.77.42l-1.07.12.62-.9a1.13,1.13,0,0,0,.18-.37s0,0,0,.05.06.13.31.16.27-.12.28-.12l.1-.27,0,.39,0,.72-.65-.28a1.37,1.37,0,0,1-.4-.24.84.84,0,0,1-.31-.6l.49.47H150l.49-.47a.84.84,0,0,1-.31.6,1.19,1.19,0,0,1-.4.24l-.65.28,0-.72,0-.39.1.27s0,.11.29.12a.33.33,0,0,0,.3-.16c0-.08,0-.1,0-.06a1.08,1.08,0,0,0,.18.38l.63.91-1.08-.13a1.2,1.2,0,0,1-.77-.42,2.24,2.24,0,0,1-.38-.58l.82.13-.85.95-.15.16h-3.4l.48-.42a10.78,10.78,0,0,0,0,1.6c0,.54.13,1.09.23,1.63a22.45,22.45,0,0,0,.85,3.22l-.86.38a26.81,26.81,0,0,1-1.45-3.36,16.46,16.46,0,0,1-.89-3.58l0-.19.12-.14.67-.85.25-.3.33.19.64.36-.23-.06,2.84-.06-.37.2.57-.88.53.66-1.08.38-.11,0-.13,0-4.75-1,.52-.37a11.67,11.67,0,0,0,0,2.13,17.62,17.62,0,0,0,.34,2.14,19.37,19.37,0,0,0,1.46,4.09l1.46,2.95-2.11-2.5a11.93,11.93,0,0,1-1.35-2,14.75,14.75,0,0,1-.95-2.2,15.1,15.1,0,0,1-.61-2.31A17.21,17.21,0,0,1,141,256v-.17l.12-.11,1-.91.18-.17.22.11a13.66,13.66,0,0,0,2.94,1.14,5.2,5.2,0,0,0,1.51.18,1.64,1.64,0,0,0,1.24-.48l.22.52-2.19-.1h-.1l-.08-.06-4.88-4.13.09.05a1.14,1.14,0,0,0-.63,0l-.3.14-.06-.31a9.87,9.87,0,0,1,0-2.92,18,18,0,0,1,.6-2.81,23.2,23.2,0,0,1,1-2.69c.36-.88.77-1.74,1.2-2.58l.38.15a42.6,42.6,0,0,0-1.25,4.85,16.47,16.47,0,0,0-.36,4.94l-.05-.09,2.42,2.18,1.22,1.07.62.53.31.25.16.12.08.06s0,0,0,0h0l1.75.24-.09.19-1.83-1.67,0,0-.5,0h-.09v-.09a62.5,62.5,0,0,1,.37-7.86,29.77,29.77,0,0,1,.71-3.88,8.87,8.87,0,0,1,1.65-3.56l.25-.3-.16.36a14.82,14.82,0,0,0-1.05,3.41,30.27,30.27,0,0,0-.48,3.55c-.11,1.19-.12,2.39-.13,3.59s.07,2.39.16,3.58v0h0a.28.28,0,0,0-.24.26.65.65,0,0,0,.16.36c.17.21.37.42.56.62s.38.39.59.58a1.73,1.73,0,0,0,.68.44l0,0v-.42a1.93,1.93,0,0,1-.54-1.64,8,8,0,0,1,.3-1.75,22.21,22.21,0,0,1,1.26-3.32h0l.26.3h0A.1.1,0,0,0,150.33,247.74Zm0,0a.1.1,0,0,1-.18,0h0l-.26-.3h0a22.94,22.94,0,0,0-1.24,3.33,6.89,6.89,0,0,0-.29,1.74,1.89,1.89,0,0,0,.52,1.61h0v.46h0a1.73,1.73,0,0,1-.7-.45c-.21-.19-.41-.39-.6-.59s-.39-.4-.56-.61a.7.7,0,0,1-.18-.39.34.34,0,0,1,.28-.31l0,0c-.09-1.2-.15-2.4-.17-3.59s0-2.4.11-3.6a33,33,0,0,1,.47-3.56,15.5,15.5,0,0,1,1-3.44l.09.06a8.84,8.84,0,0,0-1.61,3.52,29.72,29.72,0,0,0-.69,3.86,57.2,57.2,0,0,0-.32,7.85l-.09-.09.51,0h0l0,0,1.85,1.66.27.23-.36,0-1.75-.22h0a.35.35,0,0,1-.18-.06l-.09-.06-.17-.12-.32-.26-.63-.52-1.23-1.07-2.44-2.15-.05,0v-.06a16.78,16.78,0,0,1,.31-5.05,41.23,41.23,0,0,1,1.21-4.9l.38.15c-.42.85-.81,1.7-1.17,2.57a27.54,27.54,0,0,0-.9,2.65,17.27,17.27,0,0,0-.55,2.74,9.15,9.15,0,0,0,0,2.72l-.36-.17a1.24,1.24,0,0,1,.52-.09,2,2,0,0,1,.48.08h0l0,0,4.93,4.08-.18-.07,2.19.08.65,0-.43.5a2.34,2.34,0,0,1-1.68.71,6.82,6.82,0,0,1-1.7-.18,15,15,0,0,1-3.11-1.17l.4-.05-1,.92.12-.28a15.84,15.84,0,0,0,.29,2.27,14,14,0,0,0,.6,2.2,14.34,14.34,0,0,0,.93,2.08,11.19,11.19,0,0,0,1.25,1.86l-.66.45a19.41,19.41,0,0,1-1.56-4.26,17.17,17.17,0,0,1-.37-2.26,11.86,11.86,0,0,1,0-2.31l0-.47.48.1,4.76,1-.24,0,1.07-.38,1.23-.44-.71,1.1-.57.88-.12.2h-.24L145,258h-.12l-.11-.06-.64-.36.58-.11-.68.84.1-.33a16.17,16.17,0,0,0,.85,3.37,26.38,26.38,0,0,0,1.41,3.22l-.86.38a22.67,22.67,0,0,1-.9-3.35c-.11-.57-.19-1.15-.25-1.73a10.74,10.74,0,0,1,0-1.8l0-.43H148l-.36.16.85-.95.5-.56.32.7a1.21,1.21,0,0,0,.2.3.34.34,0,0,0,.13.1l-.45.78a2.14,2.14,0,0,1-.34-.73.88.88,0,0,1,.08-.65.62.62,0,0,1,.54-.34.62.62,0,0,1,.53.28l.09.1v.18l0,.39-.68-.45.1-.06s0,0,0,.1l.5-.47h.4l.5.47c0-.1-.05-.12,0-.1l.11.07-.67.44v-.57l.09-.1a.67.67,0,0,1,.53-.28.62.62,0,0,1,.54.34.88.88,0,0,1,.08.65,2.14,2.14,0,0,1-.34.73l-.45-.78a.24.24,0,0,0,.13-.1,1.21,1.21,0,0,0,.2-.3l.32-.69.5.55.85.95-.36-.16h3.62l0,.42a10.71,10.71,0,0,1,0,1.8,16.73,16.73,0,0,1-.24,1.73A24,24,0,0,1,155,265l-.85-.38a28,28,0,0,0,1.4-3.22,14.88,14.88,0,0,0,.85-3.37l.1.33-.67-.85.57.12-.64.36-.11.06h-.12l-2.84-.08h-.23l-.13-.2-.57-.88-.71-1.1,1.23.44,1.07.38-.24,0,4.76-1,.47-.1.05.47a11.86,11.86,0,0,1,0,2.31,19,19,0,0,1-.37,2.26,19.63,19.63,0,0,1-1.57,4.26l-.65-.45a10.61,10.61,0,0,0,1.25-1.86,13.88,13.88,0,0,0,.93-2.08,15.26,15.26,0,0,0,.61-2.2,17.18,17.18,0,0,0,.29-2.27l.11.28-1-.92.4,0a13.9,13.9,0,0,1-3.11,1.17,6,6,0,0,1-1.7.18,2.3,2.3,0,0,1-1.68-.71l-.42-.49.64,0,2.19-.08-.18.07,4.93-4.08,0,0h.05a2,2,0,0,1,.48-.08,1.43,1.43,0,0,1,.52.09l-.36.17a8.83,8.83,0,0,0,0-2.72,17.27,17.27,0,0,0-.55-2.74,26,26,0,0,0-.9-2.66c-.35-.86-.75-1.72-1.17-2.56l.38-.15a43.26,43.26,0,0,1,1.21,4.9,16.78,16.78,0,0,1,.31,5.05v.06l0,0-2.44,2.16-1.24,1.07-.62.52-.32.25-.17.13-.09.06a.35.35,0,0,1-.18.06h0l-1.75.22-.35,0,.26-.23,1.85-1.65,0,0h0l.51,0-.09.09a57.2,57.2,0,0,0-.32-7.85,29.72,29.72,0,0,0-.69-3.86,8.84,8.84,0,0,0-1.61-3.52l.09-.06a15.5,15.5,0,0,1,1,3.44,33,33,0,0,1,.47,3.56c.1,1.2.11,2.4.11,3.6s-.08,2.39-.17,3.59l0,0a.34.34,0,0,1,.28.31.7.7,0,0,1-.18.39c-.17.21-.37.41-.56.61s-.39.4-.6.59a1.73,1.73,0,0,1-.7.45h0v-.46h0a1.89,1.89,0,0,0,.52-1.61,6.89,6.89,0,0,0-.29-1.74,21.83,21.83,0,0,0-1.24-3.33h0Z"/><path class="cls-4" d="M128.9,268.15a13.77,13.77,0,0,1,2.31-.61,14.55,14.55,0,0,1,2.39-.23,7,7,0,0,1,4.64,1.48l-.3-.09a19.08,19.08,0,0,1,4.27-.24,9.14,9.14,0,0,1,2.17.37,3.43,3.43,0,0,1,2,1.38l-.61-.2a25.77,25.77,0,0,1,3.35-1.11,22.29,22.29,0,0,1,3.47-.61,13.64,13.64,0,0,1,3.55.11,8.21,8.21,0,0,1,3.34,1.36l-.48.06a5.34,5.34,0,0,1,2.14-1.25,8.7,8.7,0,0,1,2.35-.44,14.29,14.29,0,0,1,2.36.07l1.15.18,1.14.27c-.77-.1-1.54-.17-2.31-.2a12.63,12.63,0,0,0-2.3.13,9.4,9.4,0,0,0-2.18.54,5.09,5.09,0,0,0-1.8,1.16l-.21.24-.27-.18a8.22,8.22,0,0,0-3.07-1.08,13.17,13.17,0,0,0-3.32,0,20,20,0,0,0-3.32.62,26.57,26.57,0,0,0-3.2,1l-.41.17-.21-.37a2.48,2.48,0,0,0-1.41-1,8.78,8.78,0,0,0-1.94-.39,22.39,22.39,0,0,0-4.09.07l-.18,0-.12-.11a5.45,5.45,0,0,0-1.9-1.13,9.52,9.52,0,0,0-2.26-.44,13.18,13.18,0,0,0-2.35,0A18.64,18.64,0,0,0,128.9,268.15Z"/><path class="cls-4" d="M129.09,256.93a24,24,0,0,1,4.7-1,11.16,11.16,0,0,1,2.45,0,3.24,3.24,0,0,1,2.31,1.2l-.46-.14a14.49,14.49,0,0,1,2.44-.87,12.82,12.82,0,0,1,2.55-.43,9,9,0,0,1,2.64.22,6.64,6.64,0,0,1,2.42,1.21l-.61,0a10.48,10.48,0,0,1,2.55-1.32,9.64,9.64,0,0,1,2.82-.58,7,7,0,0,1,2.86.47,7.83,7.83,0,0,1,2.45,1.52l-.45,0a15.26,15.26,0,0,1,2.73-.89,14,14,0,0,1,2.81-.38,10.63,10.63,0,0,1,2.82.35,7.65,7.65,0,0,1,2.49,1.28,8.27,8.27,0,0,0-2.56-1,10.33,10.33,0,0,0-2.72-.12,15.29,15.29,0,0,0-5.21,1.48l-.21.11-.23-.17a7.43,7.43,0,0,0-2.23-1.28,6.27,6.27,0,0,0-2.51-.35,8.53,8.53,0,0,0-2.52.53,11.64,11.64,0,0,0-2.3,1.19l-.31.22-.3-.23a5.68,5.68,0,0,0-2-1,9.2,9.2,0,0,0-2.35-.23,12.27,12.27,0,0,0-2.4.33,15,15,0,0,0-2.33.71l-.3.12-.16-.26a2.71,2.71,0,0,0-1.8-1,13.71,13.71,0,0,0-2.32-.16A29.07,29.07,0,0,0,129.09,256.93Z"/><path class="cls-4" d="M131.5,246.94a18.72,18.72,0,0,1,2.44-.78,18.08,18.08,0,0,1,2.54-.49,11.47,11.47,0,0,1,2.62,0,5.07,5.07,0,0,1,2.56,1l-.53,0a8.09,8.09,0,0,1,2.31-1.12,7.94,7.94,0,0,1,2.52-.38,8.94,8.94,0,0,1,2.52.38,10.64,10.64,0,0,1,2.31,1l-.46,0a15.71,15.71,0,0,1,2.36-.82,11.85,11.85,0,0,1,2.45-.42,7.45,7.45,0,0,1,2.53.19,5.15,5.15,0,0,1,2.24,1.26l-.32-.07a12.24,12.24,0,0,1,1.78-.37,8.33,8.33,0,0,1,1.8-.08,4.89,4.89,0,0,1,3.31,1.22,4.93,4.93,0,0,0-3.31-.83,12.44,12.44,0,0,0-3.38.67l-.17.06-.16-.14a4.47,4.47,0,0,0-2-.95,7.83,7.83,0,0,0-2.27-.08,12.8,12.8,0,0,0-2.28.46,15.81,15.81,0,0,0-2.19.79l-.23.1-.23-.12a10.59,10.59,0,0,0-2.1-.93,7.39,7.39,0,0,0-2.24-.36,7.87,7.87,0,0,0-2.26.28,7.65,7.65,0,0,0-2.06.91l-.29.2-.23-.22a4.32,4.32,0,0,0-2.12-.93,10.64,10.64,0,0,0-2.47-.13A26.14,26.14,0,0,0,131.5,246.94Z"/><path class="cls-4" d="M133.23,240.67a10.46,10.46,0,0,1,2.38-1.09,10,10,0,0,1,2.61-.5,8.65,8.65,0,0,1,5.18,1.29l-.44,0a16.61,16.61,0,0,1,2.26-.9,12.17,12.17,0,0,1,2.4-.49,7.06,7.06,0,0,1,2.5.16,4.91,4.91,0,0,1,2.25,1.29l-.48-.13a20.91,20.91,0,0,1,3.76-.69,9.82,9.82,0,0,1,1.95,0,2.82,2.82,0,0,1,1.86.91l-.32-.1a8.66,8.66,0,0,1,3-.16,5.46,5.46,0,0,1,1.47.41,3.2,3.2,0,0,1,1.17.92,3.93,3.93,0,0,0-2.67-1,10,10,0,0,0-2.84.39l-.19.05-.14-.16a2.24,2.24,0,0,0-1.47-.56,9.71,9.71,0,0,0-1.78.07,21.48,21.48,0,0,0-3.56.76l-.28.08-.21-.2a4,4,0,0,0-1.8-1,6.56,6.56,0,0,0-2.17-.14,11.45,11.45,0,0,0-2.22.43,14.3,14.3,0,0,0-2.14.76l-.22.1-.21-.12A8.78,8.78,0,0,0,140.7,240a8.22,8.22,0,0,0-2.47-.38A12.31,12.31,0,0,0,133.23,240.67Z"/><path class="cls-4" d="M134.86,237a18.3,18.3,0,0,1,4.33-2.46,9.7,9.7,0,0,1,2.48-.62,3.58,3.58,0,0,1,2.64.67l-.47-.07a17.51,17.51,0,0,1,2.49-.87,14.85,14.85,0,0,1,2.59-.52,9,9,0,0,1,2.69.05,4.84,4.84,0,0,1,2.53,1.2l-.42-.1a14.12,14.12,0,0,1,2.19-.37,13.63,13.63,0,0,1,2.21-.06,6.49,6.49,0,0,1,4.08,1.47,5.69,5.69,0,0,0-2-.78,9.85,9.85,0,0,0-2.1-.14,16.18,16.18,0,0,0-4.16.7l-.22.07-.19-.17a4.17,4.17,0,0,0-2.1-.88,8.18,8.18,0,0,0-2.42,0,20.77,20.77,0,0,0-4.83,1.23l-.28.11-.19-.18a3,3,0,0,0-2-.58,9,9,0,0,0-2.33.4A27.77,27.77,0,0,0,134.86,237Z"/><path class="cls-4" d="M147,230.06l-2.35,5.57c-.68,1.89-1.48,3.74-2.08,5.66s-1.28,3.8-1.74,5.75c-.24,1-.54,1.93-.73,2.91l-.6,3a66.31,66.31,0,0,0-1.23,11.92,48.1,48.1,0,0,0,.26,6,32.48,32.48,0,0,0,1,5.93,36.58,36.58,0,0,1-2.08-11.92,60.81,60.81,0,0,1,1-12.12l.65-3c.21-1,.53-2,.79-2.94.5-2,1.2-3.87,1.89-5.77s1.57-3.73,2.35-5.59S146,231.84,147,230.06Z"/><path class="cls-4" d="M149.29,229a9.05,9.05,0,0,0-1.25,4h0l-1.11,21.26-.49,10.63c-.16,3.54-.32,7.09-.52,10.64-.17-3.55-.22-7.11-.2-10.66s.13-7.1.24-10.65.4-7.1.65-10.64.64-7.08,1.07-10.61v0a5.56,5.56,0,0,1,.57-2.1A16.15,16.15,0,0,1,149.29,229Z"/><path class="cls-4" d="M157.55,275.49q-.62-5.17-1.31-10.33l-1.48-10.29c-.53-3.43-1-6.87-1.48-10.3s-.88-6.89-1.28-10.34v0c-.26-.89-.52-1.78-.82-2.65a13.74,13.74,0,0,0-1.15-2.53,19.82,19.82,0,0,1,2.41,5h0v0c.55,3.42,1.18,6.84,1.7,10.27s1.11,6.85,1.55,10.29.93,6.89,1.22,10.35S157.49,272,157.55,275.49Z"/><path class="cls-4" d="M163.76,276.15c-.06-2-.13-4-.26-6s-.24-4-.42-6c-.34-4-.77-7.93-1.47-11.85a76.35,76.35,0,0,0-2.75-11.57,40.58,40.58,0,0,0-2.23-5.52,26,26,0,0,0-3.14-5.06,29.21,29.21,0,0,1,6.09,10.32,68.43,68.43,0,0,1,3,11.66,114.52,114.52,0,0,1,1.25,12A100.08,100.08,0,0,1,163.76,276.15Z"/><path class="cls-11" d="M111.44,229.8a6.48,6.48,0,0,1,2.58-.54,7.7,7.7,0,0,1,2.64.4A6.34,6.34,0,0,1,119,231a5.59,5.59,0,0,1,1.54,2.14,16.33,16.33,0,0,0-2-1.52,9.45,9.45,0,0,0-2.18-1A17.63,17.63,0,0,0,111.44,229.8Z"/><path class="cls-11" d="M177.52,235.63a12.18,12.18,0,0,1,1.54-2.41,16.89,16.89,0,0,1,2-2.07,11.83,11.83,0,0,1,2.39-1.62,6.5,6.5,0,0,1,2.78-.76,15.64,15.64,0,0,0-2.38,1.43c-.74.53-1.45,1.11-2.14,1.71C180.3,233.1,179,234.4,177.52,235.63Z"/><path class="cls-6" d="M139.4,41c1,.16-.14,13.33-.14,13.33-1,4.42,0,13.26,0,13.26s6.76,9.53,3.25,38.13c0,0,.74,3,2.21,0,0,0-.79,17.44-2.21,19.07,0,0-3.13,15.18.54,28.13,0,0,0,20.23-1.83,23.72,0,0-1.36,3.17,1.29,10.21,0,0-1.64,11.76,0,13.46,0,0,.87,4.19,2.21,3.4,0,0-2.13-6.53,0-11.36,0,0,.12-5.48-1.1-8.27,0,0-1.74-9.15.87-10.16,0,0,2.6-17.28,1.56-21.23,0,0-2.15-10.93-.48-17.91,0,0,3.1-20.22,2.32-30.46,0,0-1.77-4.88-2.32-3.25,0,0,3-4.42-.85-33.48,0,0-3.92-8.37-2.21-15.58,0,0,0-7.91,0-10.23Z"/></svg>