<svg id="spider" xmlns="http://www.w3.org/2000/svg" viewBox="0 0 482.97 487.69"><defs><style>.cls-1{fill:#fafafa;stroke:#cf2e3a;stroke-miterlimit:10;}.cls-2{fill:#cf2e3a;}</style></defs><title>spider1</title><path class="cls-1" d="M289.92,173.73l1.76-3.8s-13.9-3.27-17.11,7.85c0,0-1,8.15,2.22,12.6,0,0,4.7,14.82-9.14,14.32l-3.21,9.64s16.31,2.47,21.25-14.08c0,0,2.47-9.14-.74-16.31C285,184,278.58,174.13,289.92,173.73Z"/><path class="cls-1" d="M284,210.88l9.63-1.48,2.72-20.26s12.85,0,14.58-11.12c0,0,2-10.16-17.79-8.54Z"/><polygon class="cls-1" points="306.19 207.18 316.07 207.18 320.03 169.31 312.12 169.31 306.19 207.18"/><path class="cls-1" d="M318.3,207.18s22-3,21.24-20c0,0,.68-18.35-17.29-17.68Z"/><polygon class="cls-1" points="353.82 172.34 348.63 172.34 348.63 183.21 353.82 183.21 353.82 187.16 348.63 187.16 348.63 197.54 353.82 197.54 353.82 203.72 339 203.72 340.5 168.39 353.82 168.39 353.82 172.34"/><path class="cls-1" d="M362.52,203.79V187.53s5.8,3.34,5.31,16.19h8.89s.5-11.86-7.1-19.64c0,0,9.57-3.09,2.41-12.23,0,0-2.45-4.32-17-2.54l-1.16,33.79Z"/><path class="cls-2" d="M328.18,175.06l-2.1,21.25s4.69-.62,6.18-14.58A9.31,9.31,0,0,0,328.18,175.06Z"/><path class="cls-2" d="M361.78,173.82v8.65s4.81-1.23,5.56-3.58S361.78,173.82,361.78,173.82Z"/><path class="cls-2" d="M299,173.82l-1.58,9.76s4.29-2.22,5.53-6.17C303,177.41,302,173.58,299,173.82Z"/></svg>